<svg xmlns="http://www.w3.org/2000/svg" xmlns:xlink="http://www.w3.org/1999/xlink" viewBox="0,0,256,256" width="100px" height="100px" fill-rule="nonzero"><g fill="#ffffff" fill-rule="nonzero" stroke="none" stroke-width="1" stroke-linecap="butt" stroke-linejoin="miter" stroke-miterlimit="10" stroke-dasharray="" stroke-dashoffset="0" font-family="none" font-weight="none" font-size="none" text-anchor="none" style="mix-blend-mode: normal"><g transform="translate(-5.97333,-18.77333) scale(8.53333,8.53333)"><path d="M23,3c-2.20914,0 -4,1.79086 -4,4c0.00178,0.28117 0.03321,0.56136 0.09375,0.83594l-9.08203,4.54102c-0.75785,-0.87251 -1.85604,-1.3746 -3.01172,-1.37695c-2.20914,0 -4,1.79086 -4,4c0,2.20914 1.79086,4 4,4c1.15606,-0.0013 2.25501,-0.5027 3.01367,-1.375l9.07617,4.53906c-0.05923,0.27472 -0.08934,0.55491 -0.08984,0.83594c0,2.20914 1.79086,4 4,4c2.20914,0 4,-1.79086 4,-4c0,-2.20914 -1.79086,-4 -4,-4c-1.15606,0.0013 -2.25501,0.5027 -3.01367,1.375l-9.07617,-4.53906c0.05923,-0.27472 0.08934,-0.55491 0.08984,-0.83594c-0.00192,-0.28051 -0.03334,-0.56005 -0.09375,-0.83398l9.08203,-4.54102c0.75821,0.87178 1.85635,1.37313 3.01172,1.375c2.20914,0 4,-1.79086 4,-4c0,-2.20914 -1.79086,-4 -4,-4z"></path></g></g><g fill="#ffffff" fill-rule="nonzero" stroke="none" stroke-width="1" stroke-linecap="butt" stroke-linejoin="miter" stroke-miterlimit="10" stroke-dasharray="" stroke-dashoffset="0" font-family="none" font-weight="none" font-size="none" text-anchor="none" style="mix-blend-mode: normal"><g><path d="M87.25667,233.115v0c0,-1.18 -0.41667,-2.08667 -1.25,-2.72c-0.83333,-0.63333 -2.33333,-1.3 -4.5,-2c-2.16667,-0.7 -3.88333,-1.39 -5.15,-2.07v0c-3.44,-1.86 -5.16,-4.36667 -5.16,-7.52v0c0,-1.64 0.46,-3.10333 1.38,-4.39c0.92667,-1.28667 2.25333,-2.29 3.98,-3.01c1.72667,-0.72 3.66667,-1.08 5.82,-1.08v0c2.16667,0 4.09667,0.39 5.79,1.17c1.7,0.78667 3.01667,1.89667 3.95,3.33c0.94,1.42667 1.41,3.05 1.41,4.87v0h-6.25c0,-1.38667 -0.43667,-2.46667 -1.31,-3.24c-0.88,-0.76667 -2.11,-1.15 -3.69,-1.15v0c-1.52667,0 -2.71333,0.32 -3.56,0.96c-0.84667,0.64667 -1.27,1.5 -1.27,2.56v0c0,0.98667 0.49333,1.81333 1.48,2.48c0.99333,0.66667 2.45667,1.29 4.39,1.87v0c3.55333,1.07333 6.14333,2.4 7.77,3.98c1.62667,1.58667 2.44,3.56 2.44,5.92v0c0,2.62 -0.99333,4.67667 -2.98,6.17c-1.98667,1.49333 -4.66,2.24 -8.02,2.24v0c-2.33333,0 -4.46,-0.42667 -6.38,-1.28c-1.91333,-0.85333 -3.37333,-2.02333 -4.38,-3.51c-1.00667,-1.48667 -1.51,-3.20667 -1.51,-5.16v0h6.27c0,3.34667 2,5.02 6,5.02v0c1.48667,0 2.64667,-0.30333 3.48,-0.91c0.83333,-0.60667 1.25,-1.45 1.25,-2.53zM103.23667,209.075v11.91c1.59333,-1.91333 3.6,-2.87 6.02,-2.87v0c4.88667,0 7.36667,2.84 7.44,8.52v0v14.44h-6.03v-14.27c0,-1.29333 -0.27667,-2.25 -0.83,-2.87c-0.55333,-0.62 -1.47667,-0.93 -2.77,-0.93v0c-1.76667,0 -3.04333,0.68333 -3.83,2.05v0v16.02h-6.02v-32zM140.37667,241.075h-6.08c-0.28,-0.54667 -0.48,-1.22 -0.6,-2.02v0c-1.46,1.62 -3.35667,2.43 -5.69,2.43v0c-2.20667,0 -4.03667,-0.63667 -5.49,-1.91c-1.45333,-1.28 -2.18,-2.89333 -2.18,-4.84v0c0,-2.38667 0.88667,-4.22 2.66,-5.5c1.76667,-1.27333 4.32333,-1.91667 7.67,-1.93v0h2.78v-1.3c0,-1.04 -0.27,-1.87333 -0.81,-2.5c-0.53333,-0.62 -1.37667,-0.93 -2.53,-0.93v0c-1.01333,0 -1.80667,0.24333 -2.38,0.73c-0.58,0.48667 -0.87,1.15333 -0.87,2v0h-6.02c0,-1.30667 0.40333,-2.51667 1.21,-3.63c0.80667,-1.11333 1.94667,-1.98333 3.42,-2.61c1.46667,-0.63333 3.11667,-0.95 4.95,-0.95v0c2.78,0 4.98667,0.69667 6.62,2.09c1.63333,1.4 2.45,3.36333 2.45,5.89v0v9.77c0.01333,2.14 0.31,3.75667 0.89,4.85v0zM129.31667,236.885v0c0.88667,0 1.70667,-0.19667 2.46,-0.59c0.74667,-0.4 1.30333,-0.93333 1.67,-1.6v0v-3.87h-2.25c-3.02,0 -4.62667,1.04 -4.82,3.12v0l-0.02,0.36c0,0.74667 0.26333,1.36333 0.79,1.85c0.53333,0.48667 1.25667,0.73 2.17,0.73zM156.85667,218.385l-0.08,5.79c-0.82,-0.11333 -1.54333,-0.17 -2.17,-0.17v0c-2.28,0 -3.77333,0.77333 -4.48,2.32v0v14.75h-6.02v-22.54h5.69l0.17,2.68c1.20667,-2.06667 2.88,-3.1 5.02,-3.1v0c0.66667,0 1.29,0.09 1.87,0.27zM169.64667,241.485v0c-3.3,0 -5.99,-1.01333 -8.07,-3.04c-2.07333,-2.02667 -3.11,-4.72667 -3.11,-8.1v0v-0.59c0,-2.26 0.43667,-4.28333 1.31,-6.07c0.87333,-1.78667 2.11333,-3.16 3.72,-4.12c1.6,-0.96667 3.43,-1.45 5.49,-1.45v0c3.08,0 5.50667,0.97333 7.28,2.92c1.76667,1.94 2.65,4.69667 2.65,8.27v0v2.45h-14.35c0.19333,1.47333 0.78,2.65667 1.76,3.55c0.98,0.88667 2.22,1.33 3.72,1.33v0c2.32,0 4.13333,-0.84 5.44,-2.52v0l2.96,3.31c-0.90667,1.28 -2.13,2.27667 -3.67,2.99c-1.54,0.71333 -3.25,1.07 -5.13,1.07zM168.96667,222.985v0c-1.2,0 -2.17,0.40333 -2.91,1.21c-0.74,0.80667 -1.21667,1.96 -1.43,3.46v0h8.38v-0.48c-0.02667,-1.33333 -0.39,-2.36333 -1.09,-3.09c-0.69333,-0.73333 -1.67667,-1.1 -2.95,-1.1z"></path></g></g></svg>